HIERARCHY
ROOT Hips
{
 OFFSET 0.000000 0.000000 0.000000
 CHANNELS 6 Xposition Yposition Zposition Yrotation Xrotation Zrotation
 JOINT Chest
 {
  OFFSET 0.000000 9.585900 0.002600
  CHANNELS 3 Yrotation Xrotation Zrotation
  JOINT Chest2
  {
   OFFSET 0.000000 9.601200 -0.005300
   CHANNELS 3 Yrotation Xrotation Zrotation
   JOINT Chest3
   {
    OFFSET 0.000000 9.561800 0.000000
    CHANNELS 3 Yrotation Xrotation Zrotation
    JOINT Chest4
    {
     OFFSET 0.000000 9.552100 0.000000
     CHANNELS 3 Yrotation Xrotation Zrotation
     JOINT Neck
     {
      OFFSET 0.000000 14.453000 0.000000
      CHANNELS 3 Yrotation Xrotation Zrotation
      JOINT Head
      {
       OFFSET 0.000000 8.936500 -0.011300
       CHANNELS 3 Yrotation Xrotation Zrotation
       End Site
       {
        OFFSET 0.000000 17.073600 -0.006000
       }
      }
     }
     JOINT RightCollar
     {
      OFFSET -2.921100 9.558500 0.000000
      CHANNELS 3 Yrotation Xrotation Zrotation
      JOINT RightShoulder
      {
       OFFSET -13.519700 0.000000 0.000000
       CHANNELS 3 Yrotation Xrotation Zrotation
       JOINT RightElbow
       {
        OFFSET 0.000000 -29.696600 0.000000
        CHANNELS 3 Yrotation Xrotation Zrotation
        JOINT RightWrist
        {
         OFFSET 0.000000 -24.004700 0.000000
         CHANNELS 3 Yrotation Xrotation Zrotation
         End Site
         {
          OFFSET 0.000000 -17.728500 0.000000
         }
        }
       }
      }
     }
     JOINT LeftCollar
     {
      OFFSET 2.921100 9.558500 0.000000
      CHANNELS 3 Yrotation Xrotation Zrotation
      JOINT LeftShoulder
      {
       OFFSET 13.519700 0.000000 0.000000
       CHANNELS 3 Yrotation Xrotation Zrotation
       JOINT LeftElbow
       {
        OFFSET 0.000000 -29.696600 0.000000
        CHANNELS 3 Yrotation Xrotation Zrotation
        JOINT LeftWrist
        {
         OFFSET 0.000000 -24.004700 0.000000
         CHANNELS 3 Yrotation Xrotation Zrotation
         End Site
         {
          OFFSET 0.000000 -17.728500 0.000000
         }
        }
       }
      }
     }
    }
   }
  }
 }
 JOINT RightHip
 {
  OFFSET -7.771700 -0.012900 -0.001300
  CHANNELS 3 Yrotation Xrotation Zrotation
  JOINT RightKnee
  {
   OFFSET 0.000000 -40.869800 0.001200
   CHANNELS 3 Yrotation Xrotation Zrotation
   JOINT RightAnkle
   {
    OFFSET 0.000000 -39.717900 0.002100
    CHANNELS 3 Yrotation Xrotation Zrotation
    JOINT RightToe
    {
     OFFSET 0.000000 -4.965400 11.033500
     CHANNELS 3 Yrotation Xrotation Zrotation
     End Site
     {
      OFFSET 0.000000 -1.423100 5.872300
     }
    }
   }
  }
 }
 JOINT LeftHip
 {
  OFFSET 7.771700 -0.012900 -0.001300
  CHANNELS 3 Yrotation Xrotation Zrotation
  JOINT LeftKnee
  {
   OFFSET 0.000000 -40.869800 0.001200
   CHANNELS 3 Yrotation Xrotation Zrotation
   JOINT LeftAnkle
   {
    OFFSET 0.000000 -39.717900 0.002100
    CHANNELS 3 Yrotation Xrotation Zrotation
    JOINT LeftToe
    {
     OFFSET 0.000000 -4.965400 11.033500
     CHANNELS 3 Yrotation Xrotation Zrotation
     End Site
     {
      OFFSET 0.000000 -1.423100 5.872300
     }
    }
   }
  }
 }
}
MOTION
Frames: 7
Frame Time: 0.008333
-95.119555 62.168010 18.629039 173.008900 -50.165982 -0.694981 4.547064 26.461559 1.155234 0.661482 4.441971 0.182064 1.059165 7.051170 0.310768 3.479027 21.513334 1.420556 0.071507 16.607165 0.920198 -0.184156 -4.952794 1.675542 5.460807 3.941794 4.246846 -4.950636 -9.563262 -11.832723 -99.968474 -54.198113 138.210772 1.714850 -3.804245 -19.883388 -7.875528 1.353557 -0.170334 0.111034 -4.480711 15.427340 116.551719 -62.019722 -143.619509 9.962644 -3.740348 12.057685 3.351454 -16.994872 -3.644245 -2.137405 59.990955 -5.466942 1.756978 -5.026052 9.706134 0.304867 -0.620834 0.141789 -3.809871 -12.992220 4.123546 31.270670 75.223912 33.857025 1.848417 -11.715859 -6.155286 0.296909 0.824810 0.141193
-95.120081 62.166595 18.629846 173.015675 -50.161236 -0.699284 4.541899 26.458808 1.157645 0.660867 4.441377 0.180144 1.058390 7.051665 0.310853 3.477784 21.513018 1.419209 0.087157 16.591236 0.928436 -0.150718 -4.986713 1.675218 5.478809 3.932831 4.239938 -4.927097 -9.559315 -11.823967 -99.942825 -54.210104 138.160608 1.712543 -3.804751 -19.896308 -7.890293 1.345497 -0.173968 0.121827 -4.476305 15.429934 116.504011 -62.046939 -143.576751 9.960018 -3.764959 12.058521 3.346958 -16.999900 -3.647112 -2.142763 59.990823 -5.467951 1.760731 -5.028106 9.702549 0.305285 -0.618343 0.141464 -3.814865 -12.999931 4.121426 31.276705 75.223814 33.868411 1.825261 -11.716691 -6.153073 0.278343 0.822581 0.140408
-95.121004 62.165482 18.630338 173.018611 -50.159692 -0.698256 4.533964 26.459073 1.152934 0.659792 4.442257 0.180639 1.056346 7.051530 0.311160 3.473006 21.516006 1.421367 0.106792 16.573424 0.924816 -0.112790 -5.027408 1.678168 5.500694 3.926413 4.226475 -4.928427 -9.559477 -11.816768 -99.898631 -54.217612 138.123951 1.713873 -3.809816 -19.910243 -7.897936 1.329389 -0.187951 0.133734 -4.470110 15.434435 116.416814 -62.105097 -143.497552 9.955225 -3.799744 12.048252 3.345069 -17.002075 -3.651016 -2.147034 59.991760 -5.470627 1.761192 -5.030190 9.701871 0.307032 -0.616158 0.140594 -3.818609 -13.003342 4.119458 31.287696 75.225343 33.879917 1.788822 -11.725290 -6.140179 0.298757 0.824720 0.133176
-95.120054 62.165374 18.630221 173.013639 -50.166233 -0.702193 4.539543 26.462265 1.159934 0.660599 4.442708 0.180423 1.055235 7.053133 0.312476 3.476199 21.515967 1.422340 0.110448 16.569144 0.925872 -0.078177 -5.065019 1.681869 5.508827 3.926361 4.220816 -4.934628 -9.559970 -11.809745 -99.850184 -54.222913 138.092395 1.719924 -3.811506 -19.923706 -7.921406 1.317428 -0.196419 0.151623 -4.456158 15.439721 116.377850 -62.135480 -143.459124 9.944565 -3.787499 12.043829 3.343860 -16.997130 -3.641715 -2.152774 59.992824 -5.474997 1.764282 -5.027445 9.702072 0.307440 -0.618955 0.137940 -3.821225 -12.998014 4.127768 31.309943 75.228905 33.896017 1.789055 -11.729035 -6.134833 0.298986 0.823831 0.130722
-95.119605 62.164408 18.630722 173.014678 -50.166103 -0.708934 4.535401 26.462326 1.162849 0.666104 4.441852 0.182345 1.049471 7.053857 0.310320 3.484205 21.514248 1.425741 0.129336 16.549400 0.931214 -0.048049 -5.103539 1.684062 5.516592 3.925490 4.212515 -4.926461 -9.561334 -11.802039 -99.805552 -54.233961 138.046928 1.705262 -3.795555 -19.924288 -7.943579 1.310002 -0.204557 0.169877 -4.447978 15.445063 116.353249 -62.150048 -143.435423 9.941650 -3.791193 12.037681 3.339649 -16.997674 -3.634977 -2.159291 59.992480 -5.478727 1.764869 -5.029714 9.699102 0.311649 -0.616176 0.138213 -3.827284 -13.000119 4.133876 31.307156 75.232490 33.893569 1.787247 -11.728677 -6.141746 0.306496 0.822787 0.136419
-95.119562 62.163624 18.631002 173.008849 -50.167101 -0.708991 4.533427 26.463969 1.163886 0.661834 4.442070 0.180138 1.053969 7.054643 0.310943 3.482337 21.512723 1.421735 0.150803 16.528007 0.936818 0.002215 -5.155549 1.686218 5.540276 3.918662 4.213187 -4.922570 -9.562586 -11.798599 -99.753871 -54.250971 137.993440 1.695859 -3.793637 -19.930240 -7.955679 1.302319 -0.208421 0.190070 -4.439886 15.441665 116.334640 -62.170746 -143.419305 9.942172 -3.735285 12.015168 3.340928 -16.995956 -3.630162 -2.154470 59.990654 -5.472109 1.759953 -5.034697 9.695019 0.309726 -0.610057 0.139133 -3.826683 -13.001649 4.139685 31.317292 75.237956 33.901008 1.780058 -11.731187 -6.133230 0.304582 0.820609 0.130945
-95.115921 62.163167 18.631537 172.987922 -50.169879 -0.720690 4.558983 26.464761 1.194757 0.660027 4.442533 0.180412 1.051163 7.056740 0.307389 3.480110 21.511704 1.422614 0.171494 16.507129 0.940510 0.040804 -5.191485 1.682979 5.566381 3.915780 4.207062 -4.900462 -9.577987 -11.789527 -99.704610 -54.277370 137.920591 1.697964 -3.806016 -19.943414 -7.967170 1.292691 -0.214848 0.208955 -4.431358 15.439118 116.244607 -62.225326 -143.339751 9.931857 -3.760907 12.003483 3.345662 -16.995155 -3.602133 -2.154638 59.990305 -5.469790 1.784708 -5.051715 9.701554 0.281920 -0.597470 0.128303 -3.820002 -13.000017 4.167243 31.314048 75.246184 33.894427 1.817695 -11.712660 -6.113253 0.267922 0.800347 0.109539
